<mxfile host="Electron" modified="2024-01-10T08:13:10.273Z" agent="Mozilla/5.0 (Windows NT 10.0; Win64; x64) AppleWebKit/537.36 (KHTML, like Gecko) draw.io/22.1.2 Chrome/114.0.5735.289 Electron/25.9.4 Safari/537.36" etag="9trNEr7tiy_N8naEE2GT" version="22.1.2" type="device">
  <diagram name="Page-1" id="c7558073-3199-34d8-9f00-42111426c3f3">
    <mxGraphModel dx="1034" dy="612" grid="1" gridSize="10" guides="1" tooltips="1" connect="1" arrows="1" fold="1" page="1" pageScale="1" pageWidth="826" pageHeight="1169" background="none" math="0" shadow="0">
      <root>
        <mxCell id="0" />
        <mxCell id="1" parent="0" />
        <mxCell id="8vs-C3t4xwxnH9xpkZ4K-3" value="" style="rounded=1;whiteSpace=wrap;html=1;arcSize=4;dashed=1;dashPattern=1 1;strokeWidth=1;" vertex="1" parent="1">
          <mxGeometry x="80" y="20" width="660" height="560" as="geometry" />
        </mxCell>
        <mxCell id="JFnWMD09EHQhjqXRix4s-98" value="&lt;blockquote style=&quot;margin: 0 0 0 40px; border: none; padding: 0px;&quot;&gt;&lt;/blockquote&gt;" style="rounded=1;whiteSpace=wrap;html=1;strokeWidth=3;fillColor=#e1d5e7;strokeColor=#9673a6;rotation=0;align=center;" parent="1" vertex="1">
          <mxGeometry x="116" y="40" width="140" height="300" as="geometry" />
        </mxCell>
        <mxCell id="JFnWMD09EHQhjqXRix4s-99" value="&lt;b&gt;VR Frontend&lt;/b&gt;" style="rounded=1;whiteSpace=wrap;html=1;strokeWidth=3;fillColor=#d5e8d4;strokeColor=#82b366;rotation=-90;" parent="1" vertex="1">
          <mxGeometry x="521.5" y="160.5" width="305" height="60" as="geometry" />
        </mxCell>
        <mxCell id="JFnWMD09EHQhjqXRix4s-100" value="&lt;b&gt;VR Calculation&lt;br style=&quot;border-color: var(--border-color); padding: 0px; margin: 0px;&quot;&gt;Backend&lt;/b&gt;" style="rounded=1;whiteSpace=wrap;html=1;fillColor=#FFFFF5;strokeColor=#000000;strokeWidth=3;" parent="1" vertex="1">
          <mxGeometry x="357" y="120" width="190" height="150" as="geometry" />
        </mxCell>
        <mxCell id="JFnWMD09EHQhjqXRix4s-102" value="" style="endArrow=classic;html=1;rounded=0;entryX=0.876;entryY=-0.033;entryDx=0;entryDy=0;entryPerimeter=0;strokeWidth=2;strokeColor=#990000;exitX=1;exitY=0.75;exitDx=0;exitDy=0;" parent="1" edge="1">
          <mxGeometry width="50" height="50" relative="1" as="geometry">
            <mxPoint x="256" y="66" as="sourcePoint" />
            <mxPoint x="642.02" y="66.81999999999994" as="targetPoint" />
          </mxGeometry>
        </mxCell>
        <mxCell id="JFnWMD09EHQhjqXRix4s-103" value="параметры скважин" style="text;spacingTop=-5;align=center;fontColor=#000000;" parent="1" vertex="1">
          <mxGeometry x="345" y="46" width="210" height="19" as="geometry" />
        </mxCell>
        <mxCell id="JFnWMD09EHQhjqXRix4s-108" value="параметры &#xa;скважин" style="text;spacingTop=-5;align=center" parent="1" vertex="1">
          <mxGeometry x="268" y="118" width="66.5" height="30" as="geometry" />
        </mxCell>
        <mxCell id="JFnWMD09EHQhjqXRix4s-109" value="UDL" style="rounded=1;whiteSpace=wrap;html=1;strokeWidth=2;fillColor=#dae8fc;strokeColor=#6c8ebf;" parent="1" vertex="1">
          <mxGeometry x="140.25" y="130" width="91.5" height="60" as="geometry" />
        </mxCell>
        <mxCell id="JFnWMD09EHQhjqXRix4s-110" value="Сервисы объектной модели" style="rounded=1;whiteSpace=wrap;html=1;strokeWidth=2;fillColor=#d5e8d4;strokeColor=#82b366;" parent="1" vertex="1">
          <mxGeometry x="140.25" y="200" width="91.5" height="60" as="geometry" />
        </mxCell>
        <mxCell id="JFnWMD09EHQhjqXRix4s-111" value="Платформа&#xa;ZIIOT" style="text;spacingTop=-5;align=center;fontStyle=1" parent="1" vertex="1">
          <mxGeometry x="116" y="60" width="140" height="20" as="geometry" />
        </mxCell>
        <mxCell id="JFnWMD09EHQhjqXRix4s-112" value="" style="endArrow=classic;html=1;rounded=0;exitX=1;exitY=0.5;exitDx=0;exitDy=0;strokeWidth=2;strokeColor=#990000;" parent="1" edge="1">
          <mxGeometry width="50" height="50" relative="1" as="geometry">
            <mxPoint x="231.75" y="149" as="sourcePoint" />
            <mxPoint x="356" y="149" as="targetPoint" />
          </mxGeometry>
        </mxCell>
        <mxCell id="JFnWMD09EHQhjqXRix4s-113" value="" style="endArrow=classic;html=1;rounded=0;entryX=1;entryY=0.75;entryDx=0;entryDy=0;strokeColor=#990000;strokeWidth=2;" parent="1" edge="1">
          <mxGeometry width="50" height="50" relative="1" as="geometry">
            <mxPoint x="356" y="169" as="sourcePoint" />
            <mxPoint x="231.75" y="169" as="targetPoint" />
          </mxGeometry>
        </mxCell>
        <mxCell id="JFnWMD09EHQhjqXRix4s-115" value="расчетные &#xa;параметры" style="text;spacingTop=-5;align=center" parent="1" vertex="1">
          <mxGeometry x="268" y="170" width="66.5" height="30" as="geometry" />
        </mxCell>
        <mxCell id="JFnWMD09EHQhjqXRix4s-116" value="" style="endArrow=classic;html=1;rounded=0;exitX=1;exitY=0.5;exitDx=0;exitDy=0;strokeColor=#990000;strokeWidth=2;" parent="1" source="JFnWMD09EHQhjqXRix4s-110" edge="1">
          <mxGeometry width="50" height="50" relative="1" as="geometry">
            <mxPoint x="426" y="280" as="sourcePoint" />
            <mxPoint x="356" y="230" as="targetPoint" />
          </mxGeometry>
        </mxCell>
        <mxCell id="JFnWMD09EHQhjqXRix4s-119" value="" style="endArrow=classic;html=1;rounded=0;exitX=1.005;exitY=0.307;exitDx=0;exitDy=0;exitPerimeter=0;entryX=0.58;entryY=-0.031;entryDx=0;entryDy=0;entryPerimeter=0;strokeColor=#990000;strokeWidth=2;" parent="1" edge="1">
          <mxGeometry width="50" height="50" relative="1" as="geometry">
            <mxPoint x="547.95" y="169.04999999999995" as="sourcePoint" />
            <mxPoint x="642.1399999999999" y="169.10000000000014" as="targetPoint" />
          </mxGeometry>
        </mxCell>
        <mxCell id="JFnWMD09EHQhjqXRix4s-120" value="" style="endArrow=classic;html=1;rounded=0;entryX=1.02;entryY=0.726;entryDx=0;entryDy=0;entryPerimeter=0;exitX=0.374;exitY=0.033;exitDx=0;exitDy=0;exitPerimeter=0;strokeWidth=2;strokeColor=#990000;" parent="1" source="JFnWMD09EHQhjqXRix4s-99" target="JFnWMD09EHQhjqXRix4s-100" edge="1">
          <mxGeometry width="50" height="50" relative="1" as="geometry">
            <mxPoint x="626" y="229" as="sourcePoint" />
            <mxPoint x="556" y="230" as="targetPoint" />
          </mxGeometry>
        </mxCell>
        <mxCell id="JFnWMD09EHQhjqXRix4s-121" value="данные &#xa;адаптации" style="text;spacingTop=-5;align=center" parent="1" vertex="1">
          <mxGeometry x="562.75" y="133" width="66.5" height="30" as="geometry" />
        </mxCell>
        <mxCell id="JFnWMD09EHQhjqXRix4s-123" value="" style="endArrow=classic;html=1;rounded=0;entryX=0.876;entryY=-0.033;entryDx=0;entryDy=0;entryPerimeter=0;strokeWidth=2;strokeColor=#990000;exitX=1;exitY=0.75;exitDx=0;exitDy=0;" parent="1" edge="1">
          <mxGeometry width="50" height="50" relative="1" as="geometry">
            <mxPoint x="256" y="88" as="sourcePoint" />
            <mxPoint x="642.02" y="88.81999999999994" as="targetPoint" />
          </mxGeometry>
        </mxCell>
        <mxCell id="JFnWMD09EHQhjqXRix4s-124" value="расчетные параметры" style="text;spacingTop=-5;align=center" parent="1" vertex="1">
          <mxGeometry x="363.5" y="70" width="176.5" height="19" as="geometry" />
        </mxCell>
        <mxCell id="JFnWMD09EHQhjqXRix4s-125" value="настройки&#xa;адаптации" style="text;spacingTop=-5;align=center" parent="1" vertex="1">
          <mxGeometry x="562" y="194.5" width="66.5" height="30" as="geometry" />
        </mxCell>
        <mxCell id="JFnWMD09EHQhjqXRix4s-126" value="&lt;b&gt;PostgreSQL&lt;/b&gt;" style="shape=datastore;whiteSpace=wrap;html=1;strokeWidth=2;fillColor=#ffe6cc;strokeColor=#d79b00;" parent="1" vertex="1">
          <mxGeometry x="406" y="395" width="94" height="100" as="geometry" />
        </mxCell>
        <mxCell id="JFnWMD09EHQhjqXRix4s-127" value="" style="endArrow=classic;html=1;rounded=0;entryX=0.186;entryY=1.008;entryDx=0;entryDy=0;entryPerimeter=0;exitX=0.377;exitY=-0.029;exitDx=0;exitDy=0;exitPerimeter=0;strokeWidth=2;strokeColor=#990000;" parent="1" source="JFnWMD09EHQhjqXRix4s-126" edge="1">
          <mxGeometry width="50" height="50" relative="1" as="geometry">
            <mxPoint x="442" y="321" as="sourcePoint" />
            <mxPoint x="441.3399999999999" y="271.20000000000005" as="targetPoint" />
          </mxGeometry>
        </mxCell>
        <mxCell id="JFnWMD09EHQhjqXRix4s-128" value="" style="endArrow=classic;html=1;rounded=0;exitX=0.307;exitY=1.008;exitDx=0;exitDy=0;exitPerimeter=0;entryX=0.62;entryY=-0.029;entryDx=0;entryDy=0;entryPerimeter=0;strokeWidth=2;strokeColor=#990000;" parent="1" target="JFnWMD09EHQhjqXRix4s-126" edge="1">
          <mxGeometry width="50" height="50" relative="1" as="geometry">
            <mxPoint x="464.3299999999999" y="271.20000000000005" as="sourcePoint" />
            <mxPoint x="485" y="200" as="targetPoint" />
          </mxGeometry>
        </mxCell>
        <mxCell id="JFnWMD09EHQhjqXRix4s-129" value="данные&#xa;адаптации&#xa;и валидации" style="text;spacingTop=-5;align=center" parent="1" vertex="1">
          <mxGeometry x="362" y="339" width="69" height="50" as="geometry" />
        </mxCell>
        <mxCell id="JFnWMD09EHQhjqXRix4s-130" value="&lt;blockquote style=&quot;margin: 0 0 0 40px; border: none; padding: 0px;&quot;&gt;&lt;/blockquote&gt;" style="rounded=1;whiteSpace=wrap;html=1;strokeWidth=3;fillColor=#f8cecc;strokeColor=#b85450;rotation=0;align=center;" parent="1" vertex="1">
          <mxGeometry x="116" y="380" width="140" height="180" as="geometry" />
        </mxCell>
        <mxCell id="JFnWMD09EHQhjqXRix4s-131" value="микросервис адаптации и валидации" style="rounded=1;whiteSpace=wrap;html=1;strokeWidth=2;fillColor=#d5e8d4;strokeColor=#82b366;" parent="1" vertex="1">
          <mxGeometry x="140.25" y="415" width="91.5" height="60" as="geometry" />
        </mxCell>
        <mxCell id="JFnWMD09EHQhjqXRix4s-132" value="микросервис FMM" style="rounded=1;whiteSpace=wrap;html=1;strokeWidth=2;fillColor=#dae8fc;strokeColor=#6c8ebf;" parent="1" vertex="1">
          <mxGeometry x="140.25" y="487" width="91.5" height="60" as="geometry" />
        </mxCell>
        <mxCell id="JFnWMD09EHQhjqXRix4s-133" value="FMM" style="text;spacingTop=-5;align=center;fontStyle=1" parent="1" vertex="1">
          <mxGeometry x="116" y="389" width="140" height="20" as="geometry" />
        </mxCell>
        <mxCell id="JFnWMD09EHQhjqXRix4s-137" value="" style="endArrow=classic;startArrow=classic;html=1;rounded=1;exitX=1;exitY=0.5;exitDx=0;exitDy=0;entryX=0.204;entryY=1.012;entryDx=0;entryDy=0;entryPerimeter=0;strokeColor=#990000;strokeWidth=2;" parent="1" source="JFnWMD09EHQhjqXRix4s-131" target="JFnWMD09EHQhjqXRix4s-100" edge="1">
          <mxGeometry width="50" height="50" relative="1" as="geometry">
            <mxPoint x="416" y="340" as="sourcePoint" />
            <mxPoint x="466" y="290" as="targetPoint" />
            <Array as="points">
              <mxPoint x="286" y="445" />
              <mxPoint x="286" y="300" />
              <mxPoint x="396" y="300" />
            </Array>
          </mxGeometry>
        </mxCell>
        <mxCell id="JFnWMD09EHQhjqXRix4s-138" value="" style="endArrow=classic;startArrow=classic;html=1;rounded=1;exitX=1;exitY=0.5;exitDx=0;exitDy=0;strokeWidth=2;strokeColor=#990000;entryX=0.308;entryY=1.011;entryDx=0;entryDy=0;entryPerimeter=0;" parent="1" source="JFnWMD09EHQhjqXRix4s-132" target="JFnWMD09EHQhjqXRix4s-100" edge="1">
          <mxGeometry width="50" height="50" relative="1" as="geometry">
            <mxPoint x="286" y="490" as="sourcePoint" />
            <mxPoint x="416" y="270" as="targetPoint" />
            <Array as="points">
              <mxPoint x="306" y="517" />
              <mxPoint x="306" y="320" />
              <mxPoint x="416" y="320" />
            </Array>
          </mxGeometry>
        </mxCell>
        <mxCell id="JFnWMD09EHQhjqXRix4s-139" value="&lt;blockquote style=&quot;margin: 0 0 0 40px; border: none; padding: 0px;&quot;&gt;&lt;/blockquote&gt;" style="rounded=1;whiteSpace=wrap;html=1;strokeWidth=3;fillColor=#f5f5f5;strokeColor=#666666;rotation=0;align=center;fontColor=#333333;" parent="1" vertex="1">
          <mxGeometry x="566" y="380" width="140" height="110" as="geometry" />
        </mxCell>
        <mxCell id="JFnWMD09EHQhjqXRix4s-140" value="ML" style="text;spacingTop=-5;align=center;fontStyle=1" parent="1" vertex="1">
          <mxGeometry x="566" y="389" width="140" height="20" as="geometry" />
        </mxCell>
        <mxCell id="JFnWMD09EHQhjqXRix4s-141" value="микросервис ML" style="rounded=1;whiteSpace=wrap;html=1;strokeWidth=2;fillColor=#dae8fc;strokeColor=#6c8ebf;" parent="1" vertex="1">
          <mxGeometry x="590.25" y="415" width="91.5" height="60" as="geometry" />
        </mxCell>
        <mxCell id="JFnWMD09EHQhjqXRix4s-143" value="" style="endArrow=classic;startArrow=classic;html=1;rounded=1;exitX=0;exitY=0.5;exitDx=0;exitDy=0;entryX=0.68;entryY=1.009;entryDx=0;entryDy=0;entryPerimeter=0;strokeColor=#990000;strokeWidth=2;" parent="1" source="JFnWMD09EHQhjqXRix4s-141" target="JFnWMD09EHQhjqXRix4s-100" edge="1">
          <mxGeometry width="50" height="50" relative="1" as="geometry">
            <mxPoint x="516" y="420" as="sourcePoint" />
            <mxPoint x="566" y="370" as="targetPoint" />
            <Array as="points">
              <mxPoint x="536" y="445" />
              <mxPoint x="536" y="300" />
              <mxPoint x="486" y="300" />
            </Array>
          </mxGeometry>
        </mxCell>
        <mxCell id="8vs-C3t4xwxnH9xpkZ4K-4" value="Keycloak" style="rounded=1;whiteSpace=wrap;html=1;strokeWidth=2;fillColor=#f8cecc;strokeColor=#b85450;" vertex="1" parent="1">
          <mxGeometry x="140" y="270" width="91.5" height="60" as="geometry" />
        </mxCell>
        <mxCell id="8vs-C3t4xwxnH9xpkZ4K-6" value="" style="endArrow=classic;html=1;rounded=1;exitX=1;exitY=0.5;exitDx=0;exitDy=0;entryX=-0.007;entryY=0.839;entryDx=0;entryDy=0;entryPerimeter=0;strokeWidth=2;startArrow=none;startFill=0;endFill=1;strokeColor=#990000;" edge="1" parent="1" source="8vs-C3t4xwxnH9xpkZ4K-4" target="JFnWMD09EHQhjqXRix4s-100">
          <mxGeometry width="50" height="50" relative="1" as="geometry">
            <mxPoint x="380" y="340" as="sourcePoint" />
            <mxPoint x="350" y="246" as="targetPoint" />
            <Array as="points">
              <mxPoint x="270" y="300" />
              <mxPoint x="270" y="280" />
              <mxPoint x="270" y="246" />
              <mxPoint x="330" y="246" />
            </Array>
          </mxGeometry>
        </mxCell>
      </root>
    </mxGraphModel>
  </diagram>
</mxfile>
